<mxfile host="65bd71144e">
    <diagram id="EvPARxAtY1UA7JsVRKCG" name="Page-1">
        <mxGraphModel dx="1246" dy="877" grid="1" gridSize="10" guides="1" tooltips="1" connect="1" arrows="1" fold="1" page="1" pageScale="1" pageWidth="850" pageHeight="1100" math="0" shadow="0">
            <root>
                <mxCell id="0"/>
                <mxCell id="1" parent="0"/>
                <mxCell id="2" value="&lt;div style=&quot;direction:ltr;border-width:100%&quot;&gt;&lt;div style=&quot;direction:ltr;margin-top:0in;margin-left:0in;width:1.4277in&quot;&gt;&lt;div style=&quot;direction:ltr;margin-top:0in;margin-left:0in;width:1.4277in&quot;&gt;&lt;img alt=&quot;diagram of the bitmap file format, showing the bitmapfileheader, bitmapinfoheader, rgbquad array, and color-index array&quot; height=&quot;88&quot; width=&quot;137&quot; src=&quot;data:image/png;base64,iVBORw0KGgoAAAANSUhEUgAAAIkAAABYBAMAAAAzaMlwAAAAMFBMVEUAAACAAAAAgACAgAAAAICAAIAAgICAgIDAwMD/AAAA/wD//wAAAP//AP8A//////97H7HEAAABw0lEQVRYw+2YUXKDMAxE9wZ7/1vuDbYfkgwhBpuWZjpTMyFj7PAiC2llAzxy0D8/FuUzFMAyQNmyaQEWINPZTQExEqP7e6tFM+4uih1E2nRdxoisbJ1SaFg6o2wjv0gBciaSzHCCwPSLBVBg/ZnAa78UxXbHlqKMZmTWs+pR6nFNUGSrT1F6ZuiXIGwUgFu8yFbFS4+ysvHvUlYN+GeUbgkwsxOspmUDoTPAkdIvASh9UZ45ypKcM8qLeHcoZDWnKeQ9SrcEmJRT1QDEj8pbvvLLSwmgjrZo3zyf0UsJoHGkpGljyibe7xSmZwZ+eSkBzYAWL7RZ8fJOWdm41HtRHCkb2sGWPbncvkNxrSHVMjmX2/cp3lNSP5+iCIYo5I7g2i/yVoHibFLCWOgOKR2/NIpAKr/nKdqKY0hlVpZJitIWmKWfuQcIijimGGTFi6JyR7y0GelW7Gqy/1sZcJzQUoal3otyyJHI3n3W6T4lttqayexLih+igDIoWhINuF6gUGwXI4osKZWS0VLuJGLFeY+CQgCG7XjXlW+87tiSHxvRb2rOFnUoalWSsoyZeEnvZgXZeTdn5Gd09xEKljJ8lvLI8QVvq9hvBvPSQgAAAABJRU5ErkJggg==&quot;&gt;&lt;/div&gt;&lt;/div&gt;&lt;/div&gt;" style="text;whiteSpace=wrap;html=1;" vertex="1" parent="1">
                    <mxGeometry x="90" y="100" width="150" height="100" as="geometry"/>
                </mxCell>
                <mxCell id="3" value="&lt;p lang=&quot;x-none&quot;&gt;&lt;a href=&quot;https://learn.microsoft.com/en-us/windows/win32/gdi/bitmap-storage&quot;&gt;bitmap storage&lt;/a&gt;&lt;/p&gt;" style="text;whiteSpace=wrap;html=1;" vertex="1" parent="1">
                    <mxGeometry x="110" y="200" width="90" height="50" as="geometry"/>
                </mxCell>
                <mxCell id="4" value="&lt;div style=&quot;direction:ltr;border-width:100%&quot;&gt;&lt;div style=&quot;direction:ltr;margin-top:0in;margin-left:0in;width:4.9493in&quot;&gt;&lt;div style=&quot;direction:ltr;margin-top:0in;margin-left:0in;width:4.9493in&quot;&gt;&lt;p style=&quot;margin:0in;font-family:Calibri;font-size:16.0pt&quot;&gt;&lt;span style=&quot;font-weight:bold&quot;&gt;1. BITMAPFILEHEADER&lt;/span&gt;&lt;/p&gt;&lt;p style=&quot;margin:0in;font-family:Calibri;font-size:11.0pt&quot;&gt;&lt;a href=&quot;https://learn.microsoft.com/en-us/windows/win32/api/wingdi/ns-wingdi-bitmapfileheader&quot;&gt;BITMAPFILEHEADER&lt;/a&gt;&lt;/p&gt;&lt;br&gt;&lt;p style=&quot;margin: 0in;&quot;&gt;&lt;font face=&quot;Calibri&quot;&gt;&lt;span style=&quot;font-size: 14.6667px;&quot;&gt;typedef struct tagBITMAPFILEHEADER {&lt;/span&gt;&lt;/font&gt;&lt;/p&gt;&lt;p style=&quot;margin: 0in;&quot;&gt;&lt;font face=&quot;Calibri&quot;&gt;&lt;span style=&quot;font-size: 14.6667px;&quot;&gt;&amp;nbsp; WORD&amp;nbsp; bfType;&lt;/span&gt;&lt;/font&gt;&lt;/p&gt;&lt;p style=&quot;margin: 0in;&quot;&gt;&lt;font face=&quot;Calibri&quot;&gt;&lt;span style=&quot;font-size: 14.6667px;&quot;&gt;&amp;nbsp; DWORD bfSize;&lt;/span&gt;&lt;/font&gt;&lt;/p&gt;&lt;p style=&quot;margin: 0in;&quot;&gt;&lt;font face=&quot;Calibri&quot;&gt;&lt;span style=&quot;font-size: 14.6667px;&quot;&gt;&amp;nbsp; WORD&amp;nbsp; bfReserved1;&lt;/span&gt;&lt;/font&gt;&lt;/p&gt;&lt;p style=&quot;margin: 0in;&quot;&gt;&lt;font face=&quot;Calibri&quot;&gt;&lt;span style=&quot;font-size: 14.6667px;&quot;&gt;&amp;nbsp; WORD&amp;nbsp; bfReserved2;&lt;/span&gt;&lt;/font&gt;&lt;/p&gt;&lt;p style=&quot;margin: 0in;&quot;&gt;&lt;font face=&quot;Calibri&quot;&gt;&lt;span style=&quot;font-size: 14.6667px;&quot;&gt;&amp;nbsp; DWORD bfOffBits;&lt;/span&gt;&lt;/font&gt;&lt;/p&gt;&lt;p style=&quot;margin: 0in;&quot;&gt;&lt;font face=&quot;Calibri&quot;&gt;&lt;span style=&quot;font-size: 14.6667px;&quot;&gt;} BITMAPFILEHEADER, *LPBITMAPFILEHEADER, *PBITMAPFILEHEADER;&lt;/span&gt;&lt;/font&gt;&lt;/p&gt;&lt;/div&gt;&lt;br&gt;&lt;br&gt;&lt;/div&gt;&lt;br&gt;&lt;br&gt;&lt;/div&gt;" style="text;whiteSpace=wrap;html=1;" vertex="1" parent="1">
                    <mxGeometry x="370" y="80" width="440" height="210" as="geometry"/>
                </mxCell>
                <mxCell id="5" value="&lt;div style=&quot;direction:ltr;border-width:100%&quot;&gt;&lt;div style=&quot;direction:ltr;margin-top:0in;margin-left:0in;width:2.3854in&quot;&gt;&lt;div style=&quot;direction: ltr; margin-top: 0in; margin-left: 0in; width: 2.3854in;&quot;&gt;&lt;p style=&quot;margin:0in;font-family:Calibri;font-size:16.0pt&quot;&gt;&lt;span style=&quot;font-weight:bold&quot;&gt;3. RGBQUAD&lt;/span&gt;&lt;/p&gt;&lt;p style=&quot;margin:0in;font-family:Calibri;font-size:11.0pt&quot;&gt;&lt;a href=&quot;https://learn.microsoft.com/en-us/windows/win32/api/wingdi/ns-wingdi-rgbquad&quot;&gt;RGBQUAD&lt;/a&gt;&lt;/p&gt;&lt;ul type=&quot;disc&quot;&gt;&lt;div style=&quot;direction:ltr;margin-top:0in;margin-left:0in;width:2.3854in&quot;&gt;&lt;font style=&quot;font-size: 12px;&quot;&gt;typedef struct tagRGBQUAD {&lt;/font&gt;&lt;/div&gt;&lt;div style=&quot;direction:ltr;margin-top:0in;margin-left:0in;width:2.3854in&quot;&gt;&lt;font style=&quot;font-size: 12px;&quot;&gt;&amp;nbsp; BYTE rgbBlue;&lt;/font&gt;&lt;/div&gt;&lt;div style=&quot;direction:ltr;margin-top:0in;margin-left:0in;width:2.3854in&quot;&gt;&lt;font style=&quot;font-size: 12px;&quot;&gt;&amp;nbsp; BYTE rgbGreen;&lt;/font&gt;&lt;/div&gt;&lt;div style=&quot;direction:ltr;margin-top:0in;margin-left:0in;width:2.3854in&quot;&gt;&lt;font style=&quot;font-size: 12px;&quot;&gt;&amp;nbsp; BYTE rgbRed;&lt;/font&gt;&lt;/div&gt;&lt;div style=&quot;direction:ltr;margin-top:0in;margin-left:0in;width:2.3854in&quot;&gt;&lt;font style=&quot;font-size: 12px;&quot;&gt;&amp;nbsp; BYTE rgbReserved;&lt;/font&gt;&lt;/div&gt;&lt;div style=&quot;direction:ltr;margin-top:0in;margin-left:0in;width:2.3854in&quot;&gt;&lt;font style=&quot;font-size: 12px;&quot;&gt;} RGBQUAD;&lt;/font&gt;&lt;/div&gt; &lt;li style=&quot;margin-top:0;margin-bottom:0;vertical-align:middle&quot;&gt;&lt;span style=&quot;font-family: Calibri;&quot;&gt;&lt;font style=&quot;font-size: 12px;&quot;&gt;Need an array of quads&lt;/font&gt;&lt;/span&gt;&lt;/li&gt;&lt;/ul&gt;&lt;/div&gt;&lt;/div&gt;&lt;/div&gt;" style="text;whiteSpace=wrap;html=1;" vertex="1" parent="1">
                    <mxGeometry x="40" y="310" width="260" height="250" as="geometry"/>
                </mxCell>
                <mxCell id="7" value="&lt;p style=&quot;margin:0in;font-family:Calibri;font-size:16.0pt&quot;&gt;&lt;span style=&quot;font-weight:bold&quot;&gt;2. BITMAPINFOHEADER&lt;/span&gt;&lt;/p&gt;&lt;br&gt;&lt;a style=&quot;font-family: Calibri; font-size: 11pt; background-color: initial;&quot; href=&quot;https://learn.microsoft.com/en-us/windows/win32/api/wingdi/ns-wingdi-bitmapinfoheader&quot;&gt;BITMAPINFOHEADER&lt;/a&gt;&lt;br&gt;&lt;div&gt;typedef struct tagBITMAPINFOHEADER {&lt;/div&gt;&lt;div&gt;&amp;nbsp; DWORD biSize;&lt;/div&gt;&lt;div&gt;&amp;nbsp; LONG&amp;nbsp; biWidth;&lt;/div&gt;&lt;div&gt;&amp;nbsp; LONG&amp;nbsp; biHeight;&lt;/div&gt;&lt;div&gt;&amp;nbsp; WORD&amp;nbsp; biPlanes;&lt;/div&gt;&lt;div&gt;&amp;nbsp; WORD&amp;nbsp; biBitCount;&lt;/div&gt;&lt;div&gt;&amp;nbsp; DWORD biCompression;&lt;/div&gt;&lt;div&gt;&amp;nbsp; DWORD biSizeImage;&lt;/div&gt;&lt;div&gt;&amp;nbsp; LONG&amp;nbsp; biXPelsPerMeter;&lt;/div&gt;&lt;div&gt;&amp;nbsp; LONG&amp;nbsp; biYPelsPerMeter;&lt;/div&gt;&lt;div&gt;&amp;nbsp; DWORD biClrUsed;&lt;/div&gt;&lt;div&gt;&amp;nbsp; DWORD biClrImportant;&lt;/div&gt;&lt;div&gt;} BITMAPINFOHEADER, *LPBITMAPINFOHEADER, *PBITMAPINFOHEADER;&lt;/div&gt;&lt;p style=&quot;margin:0in;font-family:Calibri;font-size:11.0pt&quot;&gt;&lt;/p&gt;&lt;br&gt;&lt;br&gt;&lt;p style=&quot;margin:0in;font-family:Calibri;font-size:11.0pt&quot;&gt;&lt;a href=&quot;https://learn.microsoft.com/en-us/windows/win32/api/wingdi/ns-wingdi-bitmapv4header&quot;&gt;BITMAPV4HEADER&lt;/a&gt;&lt;/p&gt;&lt;div&gt;typedef struct {&lt;/div&gt;&lt;div&gt;&amp;nbsp; DWORD&amp;nbsp; &amp;nbsp; &amp;nbsp; &amp;nbsp; bV4Size;&lt;/div&gt;&lt;div&gt;&amp;nbsp; LONG&amp;nbsp; &amp;nbsp; &amp;nbsp; &amp;nbsp; &amp;nbsp;bV4Width;&lt;/div&gt;&lt;div&gt;&amp;nbsp; LONG&amp;nbsp; &amp;nbsp; &amp;nbsp; &amp;nbsp; &amp;nbsp;bV4Height;&lt;/div&gt;&lt;div&gt;&amp;nbsp; WORD&amp;nbsp; &amp;nbsp; &amp;nbsp; &amp;nbsp; &amp;nbsp;bV4Planes;&lt;/div&gt;&lt;div&gt;&amp;nbsp; WORD&amp;nbsp; &amp;nbsp; &amp;nbsp; &amp;nbsp; &amp;nbsp;bV4BitCount;&lt;/div&gt;&lt;div&gt;&amp;nbsp; DWORD&amp;nbsp; &amp;nbsp; &amp;nbsp; &amp;nbsp; bV4V4Compression;&lt;/div&gt;&lt;div&gt;&amp;nbsp; DWORD&amp;nbsp; &amp;nbsp; &amp;nbsp; &amp;nbsp; bV4SizeImage;&lt;/div&gt;&lt;div&gt;&amp;nbsp; LONG&amp;nbsp; &amp;nbsp; &amp;nbsp; &amp;nbsp; &amp;nbsp;bV4XPelsPerMeter;&lt;/div&gt;&lt;div&gt;&amp;nbsp; LONG&amp;nbsp; &amp;nbsp; &amp;nbsp; &amp;nbsp; &amp;nbsp;bV4YPelsPerMeter;&lt;/div&gt;&lt;div&gt;&amp;nbsp; DWORD&amp;nbsp; &amp;nbsp; &amp;nbsp; &amp;nbsp; bV4ClrUsed;&lt;/div&gt;&lt;div&gt;&amp;nbsp; DWORD&amp;nbsp; &amp;nbsp; &amp;nbsp; &amp;nbsp; bV4ClrImportant;&lt;/div&gt;&lt;div&gt;&amp;nbsp; DWORD&amp;nbsp; &amp;nbsp; &amp;nbsp; &amp;nbsp; bV4RedMask;&lt;/div&gt;&lt;div&gt;&amp;nbsp; DWORD&amp;nbsp; &amp;nbsp; &amp;nbsp; &amp;nbsp; bV4GreenMask;&lt;/div&gt;&lt;div&gt;&amp;nbsp; DWORD&amp;nbsp; &amp;nbsp; &amp;nbsp; &amp;nbsp; bV4BlueMask;&lt;/div&gt;&lt;div&gt;&amp;nbsp; DWORD&amp;nbsp; &amp;nbsp; &amp;nbsp; &amp;nbsp; bV4AlphaMask;&lt;/div&gt;&lt;div&gt;&amp;nbsp; DWORD&amp;nbsp; &amp;nbsp; &amp;nbsp; &amp;nbsp; bV4CSType;&lt;/div&gt;&lt;div&gt;&amp;nbsp; CIEXYZTRIPLE bV4Endpoints;&lt;/div&gt;&lt;div&gt;&amp;nbsp; DWORD&amp;nbsp; &amp;nbsp; &amp;nbsp; &amp;nbsp; bV4GammaRed;&lt;/div&gt;&lt;div&gt;&amp;nbsp; DWORD&amp;nbsp; &amp;nbsp; &amp;nbsp; &amp;nbsp; bV4GammaGreen;&lt;/div&gt;&lt;div&gt;&amp;nbsp; DWORD&amp;nbsp; &amp;nbsp; &amp;nbsp; &amp;nbsp; bV4GammaBlue;&lt;/div&gt;&lt;div&gt;} BITMAPV4HEADER, *LPBITMAPV4HEADER, *PBITMAPV4HEADER;&lt;/div&gt;&lt;div&gt;&lt;br&gt;&lt;/div&gt;&lt;div&gt;&lt;br&gt;&lt;/div&gt;&lt;p style=&quot;margin:0in;font-family:Calibri;font-size:11.0pt&quot;&gt;&lt;a href=&quot;https://learn.microsoft.com/en-us/windows/win32/api/wingdi/ns-wingdi-bitmapv5header&quot;&gt;BITMAPV5HEADER&lt;/a&gt;&lt;/p&gt;&lt;p style=&quot;margin:0in;font-family:Calibri;font-size:11.0pt&quot;&gt;&lt;br&gt;&lt;/p&gt;&lt;p style=&quot;margin: 0in;&quot;&gt;&lt;font face=&quot;Calibri&quot;&gt;&lt;span style=&quot;font-size: 14.6667px;&quot;&gt;typedef struct {&lt;/span&gt;&lt;/font&gt;&lt;/p&gt;&lt;p style=&quot;margin: 0in;&quot;&gt;&lt;font face=&quot;Calibri&quot;&gt;&lt;span style=&quot;font-size: 14.6667px;&quot;&gt;&amp;nbsp; DWORD&amp;nbsp; &amp;nbsp; &amp;nbsp; &amp;nbsp; bV5Size;&lt;/span&gt;&lt;/font&gt;&lt;/p&gt;&lt;p style=&quot;margin: 0in;&quot;&gt;&lt;font face=&quot;Calibri&quot;&gt;&lt;span style=&quot;font-size: 14.6667px;&quot;&gt;&amp;nbsp; LONG&amp;nbsp; &amp;nbsp; &amp;nbsp; &amp;nbsp; &amp;nbsp;bV5Width;&lt;/span&gt;&lt;/font&gt;&lt;/p&gt;&lt;p style=&quot;margin: 0in;&quot;&gt;&lt;font face=&quot;Calibri&quot;&gt;&lt;span style=&quot;font-size: 14.6667px;&quot;&gt;&amp;nbsp; LONG&amp;nbsp; &amp;nbsp; &amp;nbsp; &amp;nbsp; &amp;nbsp;bV5Height;&lt;/span&gt;&lt;/font&gt;&lt;/p&gt;&lt;p style=&quot;margin: 0in;&quot;&gt;&lt;font face=&quot;Calibri&quot;&gt;&lt;span style=&quot;font-size: 14.6667px;&quot;&gt;&amp;nbsp; WORD&amp;nbsp; &amp;nbsp; &amp;nbsp; &amp;nbsp; &amp;nbsp;bV5Planes;&lt;/span&gt;&lt;/font&gt;&lt;/p&gt;&lt;p style=&quot;margin: 0in;&quot;&gt;&lt;font face=&quot;Calibri&quot;&gt;&lt;span style=&quot;font-size: 14.6667px;&quot;&gt;&amp;nbsp; WORD&amp;nbsp; &amp;nbsp; &amp;nbsp; &amp;nbsp; &amp;nbsp;bV5BitCount;&lt;/span&gt;&lt;/font&gt;&lt;/p&gt;&lt;p style=&quot;margin: 0in;&quot;&gt;&lt;font face=&quot;Calibri&quot;&gt;&lt;span style=&quot;font-size: 14.6667px;&quot;&gt;&amp;nbsp; DWORD&amp;nbsp; &amp;nbsp; &amp;nbsp; &amp;nbsp; bV5Compression;&lt;/span&gt;&lt;/font&gt;&lt;/p&gt;&lt;p style=&quot;margin: 0in;&quot;&gt;&lt;font face=&quot;Calibri&quot;&gt;&lt;span style=&quot;font-size: 14.6667px;&quot;&gt;&amp;nbsp; DWORD&amp;nbsp; &amp;nbsp; &amp;nbsp; &amp;nbsp; bV5SizeImage;&lt;/span&gt;&lt;/font&gt;&lt;/p&gt;&lt;p style=&quot;margin: 0in;&quot;&gt;&lt;font face=&quot;Calibri&quot;&gt;&lt;span style=&quot;font-size: 14.6667px;&quot;&gt;&amp;nbsp; LONG&amp;nbsp; &amp;nbsp; &amp;nbsp; &amp;nbsp; &amp;nbsp;bV5XPelsPerMeter;&lt;/span&gt;&lt;/font&gt;&lt;/p&gt;&lt;p style=&quot;margin: 0in;&quot;&gt;&lt;font face=&quot;Calibri&quot;&gt;&lt;span style=&quot;font-size: 14.6667px;&quot;&gt;&amp;nbsp; LONG&amp;nbsp; &amp;nbsp; &amp;nbsp; &amp;nbsp; &amp;nbsp;bV5YPelsPerMeter;&lt;/span&gt;&lt;/font&gt;&lt;/p&gt;&lt;p style=&quot;margin: 0in;&quot;&gt;&lt;font face=&quot;Calibri&quot;&gt;&lt;span style=&quot;font-size: 14.6667px;&quot;&gt;&amp;nbsp; DWORD&amp;nbsp; &amp;nbsp; &amp;nbsp; &amp;nbsp; bV5ClrUsed;&lt;/span&gt;&lt;/font&gt;&lt;/p&gt;&lt;p style=&quot;margin: 0in;&quot;&gt;&lt;font face=&quot;Calibri&quot;&gt;&lt;span style=&quot;font-size: 14.6667px;&quot;&gt;&amp;nbsp; DWORD&amp;nbsp; &amp;nbsp; &amp;nbsp; &amp;nbsp; bV5ClrImportant;&lt;/span&gt;&lt;/font&gt;&lt;/p&gt;&lt;p style=&quot;margin: 0in;&quot;&gt;&lt;font face=&quot;Calibri&quot;&gt;&lt;span style=&quot;font-size: 14.6667px;&quot;&gt;&amp;nbsp; DWORD&amp;nbsp; &amp;nbsp; &amp;nbsp; &amp;nbsp; bV5RedMask;&lt;/span&gt;&lt;/font&gt;&lt;/p&gt;&lt;p style=&quot;margin: 0in;&quot;&gt;&lt;font face=&quot;Calibri&quot;&gt;&lt;span style=&quot;font-size: 14.6667px;&quot;&gt;&amp;nbsp; DWORD&amp;nbsp; &amp;nbsp; &amp;nbsp; &amp;nbsp; bV5GreenMask;&lt;/span&gt;&lt;/font&gt;&lt;/p&gt;&lt;p style=&quot;margin: 0in;&quot;&gt;&lt;font face=&quot;Calibri&quot;&gt;&lt;span style=&quot;font-size: 14.6667px;&quot;&gt;&amp;nbsp; DWORD&amp;nbsp; &amp;nbsp; &amp;nbsp; &amp;nbsp; bV5BlueMask;&lt;/span&gt;&lt;/font&gt;&lt;/p&gt;&lt;p style=&quot;margin: 0in;&quot;&gt;&lt;font face=&quot;Calibri&quot;&gt;&lt;span style=&quot;font-size: 14.6667px;&quot;&gt;&amp;nbsp; DWORD&amp;nbsp; &amp;nbsp; &amp;nbsp; &amp;nbsp; bV5AlphaMask;&lt;/span&gt;&lt;/font&gt;&lt;/p&gt;&lt;p style=&quot;margin: 0in;&quot;&gt;&lt;font face=&quot;Calibri&quot;&gt;&lt;span style=&quot;font-size: 14.6667px;&quot;&gt;&amp;nbsp; DWORD&amp;nbsp; &amp;nbsp; &amp;nbsp; &amp;nbsp; bV5CSType;&lt;/span&gt;&lt;/font&gt;&lt;/p&gt;&lt;p style=&quot;margin: 0in;&quot;&gt;&lt;font face=&quot;Calibri&quot;&gt;&lt;span style=&quot;font-size: 14.6667px;&quot;&gt;&amp;nbsp; CIEXYZTRIPLE bV5Endpoints;&lt;/span&gt;&lt;/font&gt;&lt;/p&gt;&lt;p style=&quot;margin: 0in;&quot;&gt;&lt;font face=&quot;Calibri&quot;&gt;&lt;span style=&quot;font-size: 14.6667px;&quot;&gt;&amp;nbsp; DWORD&amp;nbsp; &amp;nbsp; &amp;nbsp; &amp;nbsp; bV5GammaRed;&lt;/span&gt;&lt;/font&gt;&lt;/p&gt;&lt;p style=&quot;margin: 0in;&quot;&gt;&lt;font face=&quot;Calibri&quot;&gt;&lt;span style=&quot;font-size: 14.6667px;&quot;&gt;&amp;nbsp; DWORD&amp;nbsp; &amp;nbsp; &amp;nbsp; &amp;nbsp; bV5GammaGreen;&lt;/span&gt;&lt;/font&gt;&lt;/p&gt;&lt;p style=&quot;margin: 0in;&quot;&gt;&lt;font face=&quot;Calibri&quot;&gt;&lt;span style=&quot;font-size: 14.6667px;&quot;&gt;&amp;nbsp; DWORD&amp;nbsp; &amp;nbsp; &amp;nbsp; &amp;nbsp; bV5GammaBlue;&lt;/span&gt;&lt;/font&gt;&lt;/p&gt;&lt;p style=&quot;margin: 0in;&quot;&gt;&lt;font face=&quot;Calibri&quot;&gt;&lt;span style=&quot;font-size: 14.6667px;&quot;&gt;&amp;nbsp; DWORD&amp;nbsp; &amp;nbsp; &amp;nbsp; &amp;nbsp; bV5Intent;&lt;/span&gt;&lt;/font&gt;&lt;/p&gt;&lt;p style=&quot;margin: 0in;&quot;&gt;&lt;font face=&quot;Calibri&quot;&gt;&lt;span style=&quot;font-size: 14.6667px;&quot;&gt;&amp;nbsp; DWORD&amp;nbsp; &amp;nbsp; &amp;nbsp; &amp;nbsp; bV5ProfileData;&lt;/span&gt;&lt;/font&gt;&lt;/p&gt;&lt;p style=&quot;margin: 0in;&quot;&gt;&lt;font face=&quot;Calibri&quot;&gt;&lt;span style=&quot;font-size: 14.6667px;&quot;&gt;&amp;nbsp; DWORD&amp;nbsp; &amp;nbsp; &amp;nbsp; &amp;nbsp; bV5ProfileSize;&lt;/span&gt;&lt;/font&gt;&lt;/p&gt;&lt;p style=&quot;margin: 0in;&quot;&gt;&lt;font face=&quot;Calibri&quot;&gt;&lt;span style=&quot;font-size: 14.6667px;&quot;&gt;&amp;nbsp; DWORD&amp;nbsp; &amp;nbsp; &amp;nbsp; &amp;nbsp; bV5Reserved;&lt;/span&gt;&lt;/font&gt;&lt;/p&gt;&lt;p style=&quot;margin: 0in;&quot;&gt;&lt;font face=&quot;Calibri&quot;&gt;&lt;span style=&quot;font-size: 14.6667px;&quot;&gt;} BITMAPV5HEADER, *LPBITMAPV5HEADER, *PBITMAPV5HEADER;&lt;/span&gt;&lt;/font&gt;&lt;/p&gt;" style="text;whiteSpace=wrap;html=1;fontSize=12;" vertex="1" parent="1">
                    <mxGeometry x="360" y="290" width="250" height="1230" as="geometry"/>
                </mxCell>
                <mxCell id="8" value="NOTES&lt;br&gt;&lt;ul&gt;&lt;li style=&quot;text-align: left;&quot;&gt;I&lt;/li&gt;&lt;/ul&gt;" style="text;html=1;align=center;verticalAlign=middle;resizable=0;points=[];autosize=1;strokeColor=none;fillColor=none;fontSize=12;" vertex="1" parent="1">
                    <mxGeometry x="890" y="50" width="70" height="70" as="geometry"/>
                </mxCell>
            </root>
        </mxGraphModel>
    </diagram>
</mxfile>